<svg width="222" height="36" viewBox="0 0 222 36" fill="none" xmlns="http://www.w3.org/2000/svg">
<path d="M0.66 27V0.323999C2.20533 0.247999 3.52267 0.184665 4.612 0.133999C5.70133 0.0833318 6.61333 0.0579981 7.348 0.0579981C8.108 0.0326651 8.72867 0.0199986 9.21 0.0199986C11.3633 0.0199986 13.1367 0.184665 14.53 0.513999C15.9487 0.817998 17.0507 1.312 17.836 1.996C18.6467 2.68 19.2167 3.57933 19.546 4.694C19.8753 5.78333 20.04 7.126 20.04 8.722C20.04 10.394 19.85 11.8127 19.47 12.978C19.1153 14.1433 18.5453 15.106 17.76 15.866C16.9747 16.6007 15.9487 17.1327 14.682 17.462C13.4407 17.7913 11.9207 17.956 10.122 17.956C9.61533 17.956 9.15933 17.956 8.754 17.956C8.374 17.956 8.00667 17.956 7.652 17.956C7.32267 17.956 6.98067 17.956 6.626 17.956C6.27133 17.9307 5.87867 17.918 5.448 17.918C5.01733 17.8927 4.52333 17.8673 3.966 17.842V27H0.66ZM3.966 2.87V15.182C4.498 15.182 4.97933 15.1947 5.41 15.22C5.866 15.2453 6.284 15.258 6.664 15.258C7.06933 15.258 7.47467 15.2707 7.88 15.296C8.28533 15.296 8.74133 15.296 9.248 15.296C10.7173 15.296 11.9333 15.182 12.896 14.954C13.8587 14.7007 14.6187 14.3207 15.176 13.814C15.7333 13.282 16.126 12.598 16.354 11.762C16.6073 10.9007 16.734 9.87467 16.734 8.684C16.734 7.59467 16.62 6.68267 16.392 5.948C16.1893 5.188 15.822 4.56733 15.29 4.086C14.758 3.57933 14.0107 3.22467 13.048 3.022C12.1107 2.794 10.9073 2.68 9.438 2.68C9.10867 2.68 8.77933 2.68 8.45 2.68C8.12067 2.68 7.75333 2.69266 7.348 2.718C6.94267 2.718 6.46133 2.73067 5.904 2.756C5.34667 2.78133 4.70067 2.81933 3.966 2.87ZM26.364 6.632V9.14C27.124 8.456 27.8334 7.91133 28.492 7.506C29.1507 7.07533 29.822 6.75867 30.506 6.556C31.19 6.35333 31.8994 6.252 32.634 6.252C33.166 6.252 33.6854 6.29 34.192 6.366C34.6987 6.442 35.1674 6.54333 35.598 6.67L35.066 9.558C34.61 9.43133 34.1287 9.34267 33.622 9.292C33.1407 9.216 32.6847 9.178 32.254 9.178C31.3674 9.178 30.4554 9.368 29.518 9.748C28.606 10.1027 27.6434 10.7487 26.63 11.686V27H23.476V6.632H26.364ZM35.9225 16.778C35.9225 14.9793 36.0745 13.4213 36.3785 12.104C36.6825 10.7613 37.1765 9.672 37.8605 8.836C38.5445 7.97467 39.4565 7.32867 40.5965 6.898C41.7365 6.46733 43.1425 6.252 44.8145 6.252C46.4865 6.252 47.8925 6.46733 49.0325 6.898C50.1978 7.32867 51.1225 7.97467 51.8065 8.836C52.4905 9.672 52.9845 10.7613 53.2885 12.104C53.5925 13.4213 53.7445 14.9793 53.7445 16.778C53.7445 18.6273 53.5798 20.2233 53.2505 21.566C52.9212 22.9087 52.4018 24.0107 51.6925 24.872C50.9832 25.708 50.0585 26.3413 48.9185 26.772C47.8038 27.1773 46.4358 27.38 44.8145 27.38C43.2185 27.38 41.8505 27.1773 40.7105 26.772C39.5958 26.3413 38.6838 25.708 37.9745 24.872C37.2652 24.0107 36.7458 22.9087 36.4165 21.566C36.0872 20.2233 35.9225 18.6273 35.9225 16.778ZM39.1525 16.778C39.1525 18.7793 39.3425 20.3753 39.7225 21.566C40.1278 22.7567 40.7485 23.618 41.5845 24.15C42.4205 24.6567 43.4972 24.91 44.8145 24.91C46.1572 24.91 47.2465 24.6567 48.0825 24.15C48.9185 23.618 49.5265 22.7567 49.9065 21.566C50.2865 20.3753 50.4765 18.7793 50.4765 16.778C50.4765 14.802 50.2992 13.2313 49.9445 12.066C49.6152 10.8753 49.0325 10.0267 48.1965 9.52C47.3605 8.988 46.2332 8.722 44.8145 8.722C43.4212 8.722 42.3065 8.988 41.4705 9.52C40.6345 10.0267 40.0392 10.8753 39.6845 12.066C39.3298 13.2313 39.1525 14.802 39.1525 16.778ZM57.8835 27V0.399998H61.2275L69.7395 14.156L78.2135 0.399998H81.4435V27H78.4415V5.416L70.4235 18.222H68.8275L60.8855 5.454V27H57.8835ZM85.0111 22.098C85.0111 20.882 85.2644 19.8813 85.7711 19.096C86.2778 18.3107 87.0504 17.69 88.0891 17.234C89.1278 16.7527 90.4071 16.3853 91.9271 16.132C93.4471 15.8533 95.2078 15.6253 97.2091 15.448V12.598C97.2091 11.4327 96.8291 10.546 96.0691 9.938C95.3091 9.30467 94.1691 8.988 92.6491 8.988C92.1424 8.988 91.5724 9.01333 90.9391 9.064C90.3058 9.11467 89.6471 9.20333 88.9631 9.33C88.2791 9.45667 87.5698 9.634 86.8351 9.862L86.2651 7.278C87.3544 6.94867 88.4691 6.69533 89.6091 6.518C90.7491 6.34067 91.8258 6.252 92.8391 6.252C94.5111 6.252 95.9044 6.49267 97.0191 6.974C98.1591 7.43 99.0078 8.12667 99.5651 9.064C100.148 10.0013 100.439 11.1667 100.439 12.56V22.44C100.439 23.276 100.553 23.846 100.781 24.15C101.034 24.4287 101.364 24.568 101.769 24.568C101.921 24.568 102.086 24.5553 102.263 24.53C102.44 24.5047 102.63 24.454 102.833 24.378L103.175 26.734C102.795 26.9367 102.39 27.0887 101.959 27.19C101.554 27.3167 101.123 27.38 100.667 27.38C99.7551 27.38 99.0331 27.152 98.5011 26.696C97.9691 26.2147 97.6271 25.4927 97.4751 24.53C96.8671 25.0113 96.1831 25.48 95.4231 25.936C94.6884 26.3667 93.8778 26.7213 92.9911 27C92.1298 27.2533 91.1798 27.38 90.1411 27.38C89.3558 27.38 88.6464 27.266 88.0131 27.038C87.4051 26.81 86.8731 26.4807 86.4171 26.05C85.9611 25.594 85.6064 25.0367 85.3531 24.378C85.1251 23.7193 85.0111 22.9593 85.0111 22.098ZM88.2411 21.832C88.2411 22.9213 88.5071 23.7447 89.0391 24.302C89.5964 24.834 90.3311 25.1 91.2431 25.1C91.9524 25.1 92.6618 24.986 93.3711 24.758C94.0804 24.53 94.7644 24.226 95.4231 23.846C96.1071 23.4407 96.7024 22.9847 97.2091 22.478V17.348C95.8664 17.4747 94.6378 17.6267 93.5231 17.804C92.4338 17.956 91.4838 18.1967 90.6731 18.526C89.8878 18.8553 89.2798 19.286 88.8491 19.818C88.4438 20.35 88.2411 21.0213 88.2411 21.832ZM105.785 27V6.632H108.673V8.418C109.509 7.962 110.307 7.56933 111.067 7.24C111.852 6.91066 112.637 6.67 113.423 6.518C114.233 6.34067 115.082 6.252 115.969 6.252C117.21 6.252 118.249 6.46733 119.085 6.898C119.921 7.32867 120.554 7.962 120.985 8.798C121.415 9.60867 121.631 10.622 121.631 11.838V27H118.477V12.712C118.477 11.496 118.16 10.5713 117.527 9.938C116.919 9.27933 115.981 8.95 114.715 8.95C114.031 8.95 113.372 9.026 112.739 9.178C112.105 9.33 111.485 9.53267 110.877 9.786C110.269 10.014 109.623 10.3053 108.939 10.66V27H105.785ZM124.867 22.098C124.867 20.882 125.12 19.8813 125.627 19.096C126.133 18.3107 126.906 17.69 127.945 17.234C128.983 16.7527 130.263 16.3853 131.783 16.132C133.303 15.8533 135.063 15.6253 137.065 15.448V12.598C137.065 11.4327 136.685 10.546 135.925 9.938C135.165 9.30467 134.025 8.988 132.505 8.988C131.998 8.988 131.428 9.01333 130.795 9.064C130.161 9.11467 129.503 9.20333 128.819 9.33C128.135 9.45667 127.425 9.634 126.691 9.862L126.121 7.278C127.21 6.94867 128.325 6.69533 129.465 6.518C130.605 6.34067 131.681 6.252 132.695 6.252C134.367 6.252 135.76 6.49267 136.875 6.974C138.015 7.43 138.863 8.12667 139.421 9.064C140.003 10.0013 140.295 11.1667 140.295 12.56V22.44C140.295 23.276 140.409 23.846 140.637 24.15C140.89 24.4287 141.219 24.568 141.625 24.568C141.777 24.568 141.941 24.5553 142.119 24.53C142.296 24.5047 142.486 24.454 142.689 24.378L143.031 26.734C142.651 26.9367 142.245 27.0887 141.815 27.19C141.409 27.3167 140.979 27.38 140.523 27.38C139.611 27.38 138.889 27.152 138.357 26.696C137.825 26.2147 137.483 25.4927 137.331 24.53C136.723 25.0113 136.039 25.48 135.279 25.936C134.544 26.3667 133.733 26.7213 132.847 27C131.985 27.2533 131.035 27.38 129.997 27.38C129.211 27.38 128.502 27.266 127.869 27.038C127.261 26.81 126.729 26.4807 126.273 26.05C125.817 25.594 125.462 25.0367 125.209 24.378C124.981 23.7193 124.867 22.9593 124.867 22.098ZM128.097 21.832C128.097 22.9213 128.363 23.7447 128.895 24.302C129.452 24.834 130.187 25.1 131.099 25.1C131.808 25.1 132.517 24.986 133.227 24.758C133.936 24.53 134.62 24.226 135.279 23.846C135.963 23.4407 136.558 22.9847 137.065 22.478V17.348C135.722 17.4747 134.493 17.6267 133.379 17.804C132.289 17.956 131.339 18.1967 130.529 18.526C129.743 18.8553 129.135 19.286 128.705 19.818C128.299 20.35 128.097 21.0213 128.097 21.832ZM152.863 35.36C149.924 35.36 147.707 34.904 146.213 33.992C144.718 33.08 143.971 31.712 143.971 29.888C143.971 29.1787 144.085 28.52 144.313 27.912C144.566 27.3293 144.933 26.7973 145.415 26.316C145.921 25.8347 146.555 25.4167 147.315 25.062L149.367 25.746C148.759 25.9993 148.252 26.3033 147.847 26.658C147.467 27.0127 147.175 27.4053 146.973 27.836C146.795 28.2667 146.707 28.748 146.707 29.28C146.707 30.0907 146.935 30.7747 147.391 31.332C147.847 31.8893 148.543 32.3073 149.481 32.586C150.443 32.8647 151.634 33.004 153.053 33.004C154.547 33.004 155.801 32.8393 156.815 32.51C157.828 32.206 158.601 31.7627 159.133 31.18C159.69 30.5973 159.969 29.888 159.969 29.052C159.969 28.4187 159.829 27.8993 159.551 27.494C159.272 27.114 158.841 26.8227 158.259 26.62C157.701 26.4173 156.967 26.316 156.055 26.316H150.849C149.607 26.316 148.543 26.164 147.657 25.86C146.795 25.5307 146.137 25.062 145.681 24.454C145.25 23.8207 145.035 23.0607 145.035 22.174C145.035 21.2367 145.275 20.426 145.757 19.742C146.238 19.0327 146.947 18.412 147.885 17.88L149.709 18.564C149.025 18.9187 148.493 19.324 148.113 19.78C147.758 20.236 147.581 20.768 147.581 21.376C147.581 22.06 147.834 22.6047 148.341 23.01C148.847 23.39 149.671 23.58 150.811 23.58H156.967C158.943 23.58 160.437 24.0233 161.451 24.91C162.464 25.7967 162.971 27.076 162.971 28.748C162.971 30.116 162.565 31.294 161.755 32.282C160.969 33.27 159.829 34.03 158.335 34.562C156.84 35.094 155.016 35.36 152.863 35.36ZM153.129 19.476C150.57 19.476 148.632 18.9187 147.315 17.804C145.997 16.6893 145.339 15.0427 145.339 12.864C145.339 10.66 145.997 9.01333 147.315 7.924C148.632 6.80933 150.57 6.252 153.129 6.252C155.687 6.252 157.613 6.80933 158.905 7.924C160.222 9.01333 160.881 10.66 160.881 12.864C160.881 15.0427 160.222 16.6893 158.905 17.804C157.613 18.9187 155.687 19.476 153.129 19.476ZM153.129 17.272C154.699 17.272 155.865 16.93 156.625 16.246C157.385 15.5367 157.765 14.4093 157.765 12.864C157.765 11.2933 157.385 10.166 156.625 9.482C155.865 8.77267 154.699 8.418 153.129 8.418C151.558 8.418 150.38 8.77267 149.595 9.482C148.835 10.166 148.455 11.2933 148.455 12.864C148.455 14.4093 148.835 15.5367 149.595 16.246C150.38 16.93 151.558 17.272 153.129 17.272ZM158.981 9.52L157.651 7.81C157.98 6.99933 158.487 6.39133 159.171 5.986C159.855 5.58067 160.665 5.378 161.603 5.378C161.881 5.378 162.135 5.39067 162.363 5.416C162.616 5.44133 162.869 5.47933 163.123 5.53L162.781 8.076C162.603 8.02533 162.413 7.98733 162.211 7.962C162.008 7.93667 161.793 7.924 161.565 7.924C160.982 7.924 160.475 8.05067 160.045 8.304C159.614 8.55733 159.259 8.96267 158.981 9.52ZM173.173 27.38C171.78 27.38 170.539 27.19 169.449 26.81C168.36 26.43 167.435 25.8347 166.675 25.024C165.941 24.2133 165.371 23.1747 164.965 21.908C164.585 20.6413 164.395 19.1213 164.395 17.348C164.395 15.296 164.623 13.5607 165.079 12.142C165.561 10.698 166.232 9.54533 167.093 8.684C167.955 7.82267 168.943 7.202 170.057 6.822C171.197 6.442 172.439 6.252 173.781 6.252C176.365 6.252 178.291 6.94867 179.557 8.342C180.824 9.71 181.457 11.9393 181.457 15.03C181.457 15.182 181.445 15.3973 181.419 15.676C181.419 15.9547 181.407 16.2207 181.381 16.474C180.849 16.4993 180.127 16.55 179.215 16.626C178.329 16.702 177.29 16.778 176.099 16.854C174.909 16.93 173.604 16.9933 172.185 17.044C170.767 17.0947 169.272 17.1327 167.701 17.158C167.676 17.2847 167.663 17.4113 167.663 17.538C167.663 17.6647 167.663 17.804 167.663 17.956C167.663 19.6027 167.891 20.9327 168.347 21.946C168.829 22.934 169.513 23.656 170.399 24.112C171.311 24.568 172.413 24.796 173.705 24.796C174.516 24.796 175.339 24.758 176.175 24.682C177.011 24.5807 177.809 24.454 178.569 24.302C179.355 24.15 180.077 23.998 180.735 23.846L181.153 26.24C180.469 26.468 179.697 26.6707 178.835 26.848C177.999 27.0253 177.113 27.152 176.175 27.228C175.238 27.3293 174.237 27.38 173.173 27.38ZM167.739 14.954C168.955 14.954 170.121 14.9413 171.235 14.916C172.375 14.8653 173.414 14.8147 174.351 14.764C175.314 14.7133 176.125 14.6627 176.783 14.612C177.442 14.5613 177.923 14.5233 178.227 14.498C178.202 13.0793 178.025 11.9393 177.695 11.078C177.366 10.2167 176.859 9.596 176.175 9.216C175.491 8.81067 174.617 8.608 173.553 8.608C172.895 8.608 172.249 8.70933 171.615 8.912C170.982 9.08933 170.387 9.41867 169.829 9.9C169.297 10.356 168.841 11.002 168.461 11.838C168.107 12.6487 167.866 13.6873 167.739 14.954Z" fill="url(#paint0_linear_203_1495)"/>
<path d="M193.429 27L202.549 0.133999H206.235L215.393 27H211.783L209.503 20.122H199.129L196.849 27H193.429ZM199.813 17.386H208.857L204.335 3.326L199.813 17.386ZM218.455 27V0.399998H221.723V27H218.455Z" fill="url(#paint1_linear_203_1495)"/>
<defs>
<linearGradient id="paint0_linear_203_1495" x1="4.8015" y1="3.99999" x2="181.377" y2="25.8095" gradientUnits="userSpaceOnUse">
<stop stop-color="#3EC1EA"/>
<stop offset="1" stop-color="#3EEADF"/>
</linearGradient>
<linearGradient id="paint1_linear_203_1495" x1="191.843" y1="-2.50001" x2="226.647" y2="31.3781" gradientUnits="userSpaceOnUse">
<stop stop-color="#E974DD"/>
<stop offset="1" stop-color="#F3173F"/>
</linearGradient>
</defs>
</svg>
